<svg xmlns="http://www.w3.org/2000/svg" xmlns:xlink="http://www.w3.org/1999/xlink" width="500" zoomAndPan="magnify" viewBox="0 0 375 374.999991" height="500" preserveAspectRatio="xMidYMid meet" version="1.0"><defs><clipPath id="ae2548e90a"><path d="M 187.5 0 C 83.945312 0 0 83.945312 0 187.5 C 0 291.054688 83.945312 375 187.5 375 C 291.054688 375 375 291.054688 375 187.5 C 375 83.945312 291.054688 0 187.5 0 Z M 187.5 0 " clip-rule="nonzero"/></clipPath><clipPath id="91116ec8fe"><path d="M 78.332031 52.304688 L 213.332031 52.304688 L 213.332031 187.304688 L 78.332031 187.304688 Z M 78.332031 52.304688 " clip-rule="nonzero"/></clipPath><clipPath id="59fb69cf3d"><path d="M 145.832031 52.304688 L 78.332031 119.074219 L 111.71875 119.074219 L 111.71875 187.304688 L 179.949219 187.304688 L 179.949219 119.074219 L 213.332031 119.074219 Z M 145.832031 52.304688 " clip-rule="nonzero"/></clipPath><clipPath id="d1b641e7d2"><path d="M 117.707031 195.066406 L 173.957031 195.066406 L 173.957031 206.316406 L 117.707031 206.316406 Z M 117.707031 195.066406 " clip-rule="nonzero"/></clipPath><clipPath id="194cbe89d3"><path d="M 123.332031 213.816406 L 168.332031 213.816406 L 168.332031 221.316406 L 123.332031 221.316406 Z M 123.332031 213.816406 " clip-rule="nonzero"/></clipPath><clipPath id="829b05e09c"><path d="M 128.957031 228.816406 L 162.707031 228.816406 L 162.707031 232.566406 L 128.957031 232.566406 Z M 128.957031 228.816406 " clip-rule="nonzero"/></clipPath><clipPath id="045df7581a"><path d="M 161.667969 187.695312 L 296.667969 187.695312 L 296.667969 322.695312 L 161.667969 322.695312 Z M 161.667969 187.695312 " clip-rule="nonzero"/></clipPath><clipPath id="5b05ac844f"><path d="M 229.167969 322.695312 L 296.667969 255.925781 L 263.28125 255.925781 L 263.28125 187.695312 L 195.050781 187.695312 L 195.050781 255.925781 L 161.667969 255.925781 Z M 229.167969 322.695312 " clip-rule="nonzero"/></clipPath><clipPath id="aa93fb14dd"><path d="M 201.042969 168.683594 L 257.292969 168.683594 L 257.292969 179.933594 L 201.042969 179.933594 Z M 201.042969 168.683594 " clip-rule="nonzero"/></clipPath><clipPath id="c7ac8027a2"><path d="M 206.667969 153.683594 L 251.667969 153.683594 L 251.667969 161.183594 L 206.667969 161.183594 Z M 206.667969 153.683594 " clip-rule="nonzero"/></clipPath><clipPath id="55535e8bb3"><path d="M 212.292969 142.433594 L 246.042969 142.433594 L 246.042969 146.183594 L 212.292969 146.183594 Z M 212.292969 142.433594 " clip-rule="nonzero"/></clipPath></defs><g clip-path="url(#ae2548e90a)"><rect x="-37.5" width="450" fill="#000000" y="-37.499999" height="449.999989" fill-opacity="1"/></g><g clip-path="url(#91116ec8fe)"><g clip-path="url(#59fb69cf3d)"><path fill="#ffffff" d="M 78.332031 52.304688 L 213.332031 52.304688 L 213.332031 187.304688 L 78.332031 187.304688 Z M 78.332031 52.304688 " fill-opacity="1" fill-rule="nonzero"/></g></g><g clip-path="url(#d1b641e7d2)"><path fill="#ffffff" d="M 117.707031 195.066406 L 173.957031 195.066406 L 173.957031 206.316406 L 117.707031 206.316406 Z M 117.707031 195.066406 " fill-opacity="1" fill-rule="nonzero"/></g><g clip-path="url(#194cbe89d3)"><path fill="#ffffff" d="M 123.332031 213.816406 L 168.332031 213.816406 L 168.332031 221.316406 L 123.332031 221.316406 Z M 123.332031 213.816406 " fill-opacity="1" fill-rule="nonzero"/></g><g clip-path="url(#829b05e09c)"><path fill="#ffffff" d="M 128.957031 228.816406 L 162.707031 228.816406 L 162.707031 232.566406 L 128.957031 232.566406 Z M 128.957031 228.816406 " fill-opacity="1" fill-rule="nonzero"/></g><g clip-path="url(#045df7581a)"><g clip-path="url(#5b05ac844f)"><path fill="#ffffff" d="M 296.667969 322.695312 L 161.667969 322.695312 L 161.667969 187.695312 L 296.667969 187.695312 Z M 296.667969 322.695312 " fill-opacity="1" fill-rule="nonzero"/></g></g><g clip-path="url(#aa93fb14dd)"><path fill="#ffffff" d="M 257.292969 179.933594 L 201.042969 179.933594 L 201.042969 168.683594 L 257.292969 168.683594 Z M 257.292969 179.933594 " fill-opacity="1" fill-rule="nonzero"/></g><g clip-path="url(#c7ac8027a2)"><path fill="#ffffff" d="M 251.667969 161.183594 L 206.667969 161.183594 L 206.667969 153.683594 L 251.667969 153.683594 Z M 251.667969 161.183594 " fill-opacity="1" fill-rule="nonzero"/></g><g clip-path="url(#55535e8bb3)"><path fill="#ffffff" d="M 246.042969 146.183594 L 212.292969 146.183594 L 212.292969 142.433594 L 246.042969 142.433594 Z M 246.042969 146.183594 " fill-opacity="1" fill-rule="nonzero"/></g></svg>