<svg xmlns="http://www.w3.org/2000/svg"
    xmlns:xlink="http://www.w3.org/1999/xlink" width="500" zoomAndPan="magnify"
    viewBox="0 0 375 374.999991" height="500"
    preserveAspectRatio="xMidYMid meet" version="1.0">
    <defs>
        <clipPath id="3618242c5a">
            <path
                d="M 187.5 0 C 83.945312 0 0 83.945312 0 187.5 C 0 291.054688 83.945312 375 187.5 375 C 291.054688 375 375 291.054688 375 187.5 C 375 83.945312 291.054688 0 187.5 0 Z M 187.5 0 "
                clip-rule="nonzero" />
        </clipPath>
        <clipPath id="25d1a3ecec">
            <path d="M 108 46 L 236 46 L 236 185 L 108 185 Z M 108 46 "
                clip-rule="nonzero" />
        </clipPath>
        <clipPath id="c8910193ca">
            <path
                d="M 131.15625 23.121094 L 258.015625 69.292969 L 211.839844 196.152344 L 84.984375 149.980469 Z M 131.15625 23.121094 "
                clip-rule="nonzero" />
        </clipPath>
        <clipPath id="2cb417f301">
            <path
                d="M 194.585938 46.207031 L 108.320312 85.863281 L 139.691406 97.28125 L 116.355469 161.398438 L 180.46875 184.734375 L 203.804688 120.617188 L 235.175781 132.035156 Z M 194.585938 46.207031 "
                clip-rule="nonzero" />
        </clipPath>
        <clipPath id="f0386e87c4">
            <path d="M 115 170 L 173 170 L 173 201 L 115 201 Z M 115 170 "
                clip-rule="nonzero" />
        </clipPath>
        <clipPath id="f36365a1d6">
            <path
                d="M 119.328125 170.738281 L 172.1875 189.976562 L 168.339844 200.550781 L 115.480469 181.308594 Z M 119.328125 170.738281 "
                clip-rule="nonzero" />
        </clipPath>
        <clipPath id="c8b009f14a">
            <path d="M 115 190 L 161 190 L 161 213 L 115 213 Z M 115 190 "
                clip-rule="nonzero" />
        </clipPath>
        <clipPath id="da75ce5678">
            <path
                d="M 118.203125 190.28125 L 160.488281 205.671875 L 157.921875 212.71875 L 115.636719 197.328125 Z M 118.203125 190.28125 "
                clip-rule="nonzero" />
        </clipPath>
        <clipPath id="c9dee58717">
            <path d="M 117 206 L 151 206 L 151 222 L 117 222 Z M 117 206 "
                clip-rule="nonzero" />
        </clipPath>
        <clipPath id="b214588471">
            <path
                d="M 118.355469 206.300781 L 150.070312 217.84375 L 148.789062 221.367188 L 117.074219 209.824219 Z M 118.355469 206.300781 "
                clip-rule="nonzero" />
        </clipPath>
        <clipPath id="7521434939">
            <path d="M 139 190 L 267 190 L 267 329 L 139 329 Z M 139 190 "
                clip-rule="nonzero" />
        </clipPath>
        <clipPath id="eb2aac787e">
            <path
                d="M 243.84375 351.878906 L 116.984375 305.707031 L 163.15625 178.847656 L 290.015625 225.019531 Z M 243.84375 351.878906 "
                clip-rule="nonzero" />
        </clipPath>
        <clipPath id="9ba270f558">
            <path
                d="M 180.414062 328.792969 L 266.679688 289.136719 L 235.308594 277.71875 L 258.644531 213.601562 L 194.527344 190.265625 L 171.191406 254.382812 L 139.820312 242.964844 Z M 180.414062 328.792969 "
                clip-rule="nonzero" />
        </clipPath>
        <clipPath id="b13f40610c">
            <path d="M 202 174 L 260 174 L 260 205 L 202 205 Z M 202 174 "
                clip-rule="nonzero" />
        </clipPath>
        <clipPath id="e24ad83c8d">
            <path
                d="M 255.667969 204.261719 L 202.8125 185.023438 L 206.660156 174.449219 L 259.515625 193.691406 Z M 255.667969 204.261719 "
                clip-rule="nonzero" />
        </clipPath>
        <clipPath id="b3499ac649">
            <path d="M 214 162 L 260 162 L 260 185 L 214 185 Z M 214 162 "
                clip-rule="nonzero" />
        </clipPath>
        <clipPath id="d7a6fd7105">
            <path
                d="M 256.796875 184.71875 L 214.511719 169.328125 L 217.074219 162.28125 L 259.363281 177.671875 Z M 256.796875 184.71875 "
                clip-rule="nonzero" />
        </clipPath>
        <clipPath id="ebfdf15397">
            <path d="M 224 153 L 258 153 L 258 169 L 224 169 Z M 224 153 "
                clip-rule="nonzero" />
        </clipPath>
        <clipPath id="0d4ed18a2e">
            <path
                d="M 256.640625 168.699219 L 224.925781 157.15625 L 226.207031 153.632812 L 257.921875 165.175781 Z M 256.640625 168.699219 "
                clip-rule="nonzero" />
        </clipPath>
    </defs>
    <g clip-path="url(#3618242c5a)">
        <rect x="-37.5" width="450" fill="#ffffff" y="-37.499999"
            height="449.999989" fill-opacity="1" />
    </g>
    <g clip-path="url(#25d1a3ecec)">
        <g clip-path="url(#c8910193ca)">
            <g clip-path="url(#2cb417f301)">
                <path fill="#000000"
                    d="M 131.15625 23.121094 L 258.015625 69.292969 L 211.839844 196.152344 L 84.984375 149.980469 Z M 131.15625 23.121094 "
                    fill-opacity="1" fill-rule="nonzero" />
            </g>
        </g>
    </g>
    <g clip-path="url(#f0386e87c4)">
        <g clip-path="url(#f36365a1d6)">
            <path fill="#000000"
                d="M 119.328125 170.738281 L 172.1875 189.976562 L 168.339844 200.550781 L 115.480469 181.308594 Z M 119.328125 170.738281 "
                fill-opacity="1" fill-rule="nonzero" />
        </g>
    </g>
    <g clip-path="url(#c8b009f14a)">
        <g clip-path="url(#da75ce5678)">
            <path fill="#000000"
                d="M 118.203125 190.28125 L 160.488281 205.671875 L 157.921875 212.71875 L 115.636719 197.328125 Z M 118.203125 190.28125 "
                fill-opacity="1" fill-rule="nonzero" />
        </g>
    </g>
    <g clip-path="url(#c9dee58717)">
        <g clip-path="url(#b214588471)">
            <path fill="#000000"
                d="M 118.355469 206.300781 L 150.070312 217.84375 L 148.789062 221.367188 L 117.074219 209.824219 Z M 118.355469 206.300781 "
                fill-opacity="1" fill-rule="nonzero" />
        </g>
    </g>
    <g clip-path="url(#7521434939)">
        <g clip-path="url(#eb2aac787e)">
            <g clip-path="url(#9ba270f558)">
                <path fill="#000000"
                    d="M 243.84375 351.878906 L 116.984375 305.707031 L 163.15625 178.847656 L 290.015625 225.019531 Z M 243.84375 351.878906 "
                    fill-opacity="1" fill-rule="nonzero" />
            </g>
        </g>
    </g>
    <g clip-path="url(#b13f40610c)">
        <g clip-path="url(#e24ad83c8d)">
            <path fill="#000000"
                d="M 255.667969 204.261719 L 202.8125 185.023438 L 206.660156 174.449219 L 259.515625 193.691406 Z M 255.667969 204.261719 "
                fill-opacity="1" fill-rule="nonzero" />
        </g>
    </g>
    <g clip-path="url(#b3499ac649)">
        <g clip-path="url(#d7a6fd7105)">
            <path fill="#000000"
                d="M 256.796875 184.71875 L 214.511719 169.328125 L 217.074219 162.28125 L 259.363281 177.671875 Z M 256.796875 184.71875 "
                fill-opacity="1" fill-rule="nonzero" />
        </g>
    </g>
    <g clip-path="url(#ebfdf15397)">
        <g clip-path="url(#0d4ed18a2e)">
            <path fill="#000000"
                d="M 256.640625 168.699219 L 224.925781 157.15625 L 226.207031 153.632812 L 257.921875 165.175781 Z M 256.640625 168.699219 "
                fill-opacity="1" fill-rule="nonzero" />
        </g>
    </g>
</svg>