<svg xmlns="http://www.w3.org/2000/svg"
    xmlns:xlink="http://www.w3.org/1999/xlink" width="400" zoomAndPan="magnify"
    viewBox="0 0 300 74.999997" height="100" preserveAspectRatio="xMidYMid meet"
    version="1.0">
    <defs>
        <g />
        <clipPath id="80067735f9">
            <path d="M 22 7 L 50 7 L 50 37 L 22 37 Z M 22 7 "
                clip-rule="nonzero" />
        </clipPath>
        <clipPath id="14d7acfdd6">
            <path
                d="M 27.328125 3.089844 L 53.882812 12.757812 L 44.21875 39.3125 L 17.664062 29.644531 Z M 27.328125 3.089844 "
                clip-rule="nonzero" />
        </clipPath>
        <clipPath id="21928353c4">
            <path
                d="M 40.605469 7.921875 L 22.546875 16.226562 L 29.113281 18.617188 L 24.230469 32.035156 L 37.652344 36.921875 L 42.535156 23.5 L 49.105469 25.890625 Z M 40.605469 7.921875 "
                clip-rule="nonzero" />
        </clipPath>
        <clipPath id="586961165a">
            <path d="M 24 33 L 36 33 L 36 41 L 24 41 Z M 24 33 "
                clip-rule="nonzero" />
        </clipPath>
        <clipPath id="488dfabf95">
            <path
                d="M 24.851562 33.992188 L 35.917969 38.019531 L 35.113281 40.230469 L 24.046875 36.203125 Z M 24.851562 33.992188 "
                clip-rule="nonzero" />
        </clipPath>
        <clipPath id="ccd1d8fd03">
            <path d="M 24 38 L 34 38 L 34 43 L 24 43 Z M 24 38 "
                clip-rule="nonzero" />
        </clipPath>
        <clipPath id="488ea4c667">
            <path
                d="M 24.617188 38.082031 L 33.46875 41.304688 L 32.933594 42.78125 L 24.078125 39.558594 Z M 24.617188 38.082031 "
                clip-rule="nonzero" />
        </clipPath>
        <clipPath id="2b606292ae">
            <path d="M 24 41 L 32 41 L 32 45 L 24 45 Z M 24 41 "
                clip-rule="nonzero" />
        </clipPath>
        <clipPath id="599c0b9775">
            <path
                d="M 24.648438 41.4375 L 31.289062 43.851562 L 31.019531 44.589844 L 24.382812 42.175781 Z M 24.648438 41.4375 "
                clip-rule="nonzero" />
        </clipPath>
        <clipPath id="99900b7ac2">
            <path d="M 29 38 L 56 38 L 56 68 L 29 68 Z M 29 38 "
                clip-rule="nonzero" />
        </clipPath>
        <clipPath id="4d25035e6b">
            <path
                d="M 50.914062 71.90625 L 24.359375 62.242188 L 34.027344 35.683594 L 60.582031 45.351562 Z M 50.914062 71.90625 "
                clip-rule="nonzero" />
        </clipPath>
        <clipPath id="d50c94c2de">
            <path
                d="M 37.636719 67.074219 L 55.695312 58.773438 L 49.128906 56.382812 L 54.015625 42.960938 L 40.59375 38.074219 L 35.707031 51.496094 L 29.140625 49.105469 Z M 37.636719 67.074219 "
                clip-rule="nonzero" />
        </clipPath>
        <clipPath id="07af71ddbe">
            <path d="M 42 34 L 55 34 L 55 42 L 42 42 Z M 42 34 "
                clip-rule="nonzero" />
        </clipPath>
        <clipPath id="6db5df8fc7">
            <path
                d="M 53.390625 41.003906 L 42.324219 36.980469 L 43.132812 34.765625 L 54.195312 38.792969 Z M 53.390625 41.003906 "
                clip-rule="nonzero" />
        </clipPath>
        <clipPath id="ec7e146c06">
            <path d="M 44 32 L 55 32 L 55 37 L 44 37 Z M 44 32 "
                clip-rule="nonzero" />
        </clipPath>
        <clipPath id="7197edc989">
            <path
                d="M 53.628906 36.914062 L 44.777344 33.691406 L 45.316406 32.214844 L 54.167969 35.4375 Z M 53.628906 36.914062 "
                clip-rule="nonzero" />
        </clipPath>
        <clipPath id="6b05fe3311">
            <path d="M 46 30 L 54 30 L 54 34 L 46 34 Z M 46 30 "
                clip-rule="nonzero" />
        </clipPath>
        <clipPath id="0c9b431ac0">
            <path
                d="M 53.59375 33.554688 L 46.953125 31.140625 L 47.222656 30.402344 L 53.859375 32.820312 Z M 53.59375 33.554688 "
                clip-rule="nonzero" />
        </clipPath>
    </defs>
    <g fill="#000000" fill-opacity="1">
        <g transform="translate(74.490877, 53.804915)">
            <g>
                <path
                    d="M 40.09375 0 L 34.5 0 L 30.375 -12.21875 L 11.390625 -12.21875 L 7.25 0 L 1.765625 0 L 17.3125 -44.546875 L 24.5625 -44.546875 Z M 20.5 -39.15625 L 12.859375 -16.609375 L 28.890625 -16.609375 L 21.265625 -39.15625 Z M 20.5 -39.15625 " />
            </g>
        </g>
    </g>
    <g fill="#000000" fill-opacity="1">
        <g transform="translate(116.352582, 53.804915)">
            <g>
                <path
                    d="M 17.3125 14.265625 C 12.007812 14.265625 8.140625 13.378906 5.703125 11.609375 C 3.265625 9.835938 2.046875 7.492188 2.046875 4.578125 C 2.046875 2.679688 2.613281 1.175781 3.75 0.0625 C 4.882812 -1.050781 6.539062 -1.851562 8.71875 -2.34375 L 8.71875 -2.984375 C 7.675781 -3.578125 6.894531 -4.269531 6.375 -5.0625 C 5.863281 -5.851562 5.609375 -6.796875 5.609375 -7.890625 C 5.609375 -9.191406 6.019531 -10.25 6.84375 -11.0625 C 7.664062 -11.875 8.890625 -12.492188 10.515625 -12.921875 L 10.515625 -13.5625 C 6.859375 -15.488281 5.03125 -18.625 5.03125 -22.96875 C 5.03125 -25.164062 5.523438 -27.117188 6.515625 -28.828125 C 7.515625 -30.535156 8.9375 -31.863281 10.78125 -32.8125 C 12.632812 -33.769531 14.789062 -34.25 17.25 -34.25 C 20.070312 -34.25 22.425781 -33.628906 24.3125 -32.390625 C 25.03125 -33.179688 25.566406 -34.03125 25.921875 -34.9375 C 26.273438 -35.84375 26.503906 -36.863281 26.609375 -38 L 27.234375 -38.390625 L 31.328125 -37.421875 C 31.117188 -35.710938 30.601562 -34.269531 29.78125 -33.09375 C 28.957031 -31.914062 27.796875 -30.941406 26.296875 -30.171875 L 26.296875 -29.53125 C 27.367188 -28.675781 28.164062 -27.671875 28.6875 -26.515625 C 29.207031 -25.367188 29.46875 -24.035156 29.46875 -22.515625 C 29.46875 -20.398438 28.957031 -18.5 27.9375 -16.8125 C 26.925781 -15.132812 25.492188 -13.8125 23.640625 -12.84375 C 21.796875 -11.875 19.664062 -11.390625 17.25 -11.390625 C 16.96875 -11.390625 16.457031 -11.410156 15.71875 -11.453125 C 14.90625 -11.492188 14.304688 -11.515625 13.921875 -11.515625 C 12.867188 -11.515625 12.023438 -11.238281 11.390625 -10.6875 C 10.765625 -10.144531 10.453125 -9.445312 10.453125 -8.59375 C 10.453125 -7.539062 10.789062 -6.765625 11.46875 -6.265625 C 12.15625 -5.765625 13.28125 -5.484375 14.84375 -5.421875 L 22.796875 -5.15625 C 26.222656 -5.03125 28.765625 -4.226562 30.421875 -2.75 C 32.078125 -1.28125 32.90625 0.800781 32.90625 3.5 C 32.90625 5.507812 32.363281 7.320312 31.28125 8.9375 C 30.207031 10.550781 28.503906 11.84375 26.171875 12.8125 C 23.835938 13.78125 20.882812 14.265625 17.3125 14.265625 Z M 17.25 -15.65625 C 19.625 -15.65625 21.460938 -16.273438 22.765625 -17.515625 C 24.066406 -18.753906 24.71875 -20.492188 24.71875 -22.734375 C 24.71875 -25.046875 24.070312 -26.832031 22.78125 -28.09375 C 21.488281 -29.351562 19.644531 -29.984375 17.25 -29.984375 C 14.851562 -29.984375 13.023438 -29.359375 11.765625 -28.109375 C 10.503906 -26.859375 9.875 -25.066406 9.875 -22.734375 C 9.875 -20.472656 10.503906 -18.726562 11.765625 -17.5 C 13.023438 -16.269531 14.851562 -15.65625 17.25 -15.65625 Z M 17.3125 10 C 19.789062 10 21.816406 9.722656 23.390625 9.171875 C 24.960938 8.617188 26.09375 7.890625 26.78125 6.984375 C 27.476562 6.085938 27.828125 5.082031 27.828125 3.96875 C 27.828125 2.96875 27.632812 2.160156 27.25 1.546875 C 26.875 0.941406 26.269531 0.484375 25.4375 0.171875 C 24.601562 -0.128906 23.46875 -0.316406 22.03125 -0.390625 L 14.5 -0.765625 L 13.4375 -0.765625 C 9.226562 -0.703125 7.125 0.929688 7.125 4.140625 C 7.125 8.046875 10.519531 10 17.3125 10 Z M 17.3125 10 " />
            </g>
        </g>
    </g>
    <g fill="#000000" fill-opacity="1">
        <g transform="translate(150.78033, 53.804915)">
            <g>
                <path
                    d="M 32.03125 -15.65625 L 8.921875 -15.65625 C 9.066406 -11.570312 10.046875 -8.578125 11.859375 -6.671875 C 13.679688 -4.765625 16.175781 -3.8125 19.34375 -3.8125 C 21.738281 -3.8125 23.664062 -4.238281 25.125 -5.09375 C 26.59375 -5.945312 27.742188 -7.285156 28.578125 -9.109375 L 29.21875 -9.109375 L 32.453125 -7.1875 C 31.472656 -4.75 29.910156 -2.832031 27.765625 -1.4375 C 25.628906 -0.0507812 22.820312 0.640625 19.34375 0.640625 C 16.09375 0.640625 13.300781 0 10.96875 -1.28125 C 8.632812 -2.5625 6.835938 -4.5 5.578125 -7.09375 C 4.316406 -9.695312 3.6875 -12.929688 3.6875 -16.796875 C 3.6875 -20.609375 4.347656 -23.820312 5.671875 -26.4375 C 7.003906 -29.0625 8.820312 -31.019531 11.125 -32.3125 C 13.4375 -33.601562 16.078125 -34.25 19.046875 -34.25 C 23.347656 -34.25 26.707031 -33.035156 29.125 -30.609375 C 31.539062 -28.179688 32.757812 -24.582031 32.78125 -19.8125 C 32.78125 -17.9375 32.742188 -16.675781 32.671875 -16.03125 Z M 27.875 -19.8125 C 27.800781 -23.382812 27.007812 -25.984375 25.5 -27.609375 C 24 -29.234375 21.847656 -30.046875 19.046875 -30.046875 C 16.097656 -30.046875 13.785156 -29.226562 12.109375 -27.59375 C 10.429688 -25.957031 9.410156 -23.363281 9.046875 -19.8125 Z M 27.875 -19.8125 " />
            </g>
        </g>
    </g>
    <g fill="#000000" fill-opacity="1">
        <g transform="translate(186.609562, 53.804915)">
            <g>
                <path
                    d="M 5.84375 0 L 5.84375 -33.609375 L 10.578125 -33.609375 L 10.578125 -28.34375 L 11.21875 -28.1875 C 12.332031 -30.15625 13.753906 -31.65625 15.484375 -32.6875 C 17.222656 -33.726562 19.34375 -34.25 21.84375 -34.25 C 25.882812 -34.25 28.8125 -33.21875 30.625 -31.15625 C 32.445312 -29.09375 33.359375 -25.921875 33.359375 -21.640625 L 33.359375 0 L 28.40625 0 L 28.40625 -21.515625 C 28.40625 -23.546875 28.144531 -25.175781 27.625 -26.40625 C 27.101562 -27.632812 26.296875 -28.523438 25.203125 -29.078125 C 24.117188 -29.640625 22.695312 -29.921875 20.9375 -29.921875 C 17.90625 -29.921875 15.457031 -28.921875 13.59375 -26.921875 C 11.738281 -24.921875 10.8125 -21.695312 10.8125 -17.25 L 10.8125 0 Z M 5.84375 0 " />
            </g>
        </g>
    </g>
    <g fill="#000000" fill-opacity="1">
        <g transform="translate(225.302695, 53.804915)">
            <g>
                <path
                    d="M 19.28125 0.640625 C 16.320312 0.640625 13.660156 -0.03125 11.296875 -1.375 C 8.941406 -2.726562 7.082031 -4.722656 5.71875 -7.359375 C 4.363281 -9.992188 3.6875 -13.140625 3.6875 -16.796875 C 3.6875 -20.472656 4.363281 -23.625 5.71875 -26.25 C 7.082031 -28.882812 8.941406 -30.875 11.296875 -32.21875 C 13.660156 -33.570312 16.320312 -34.25 19.28125 -34.25 C 22.84375 -34.25 25.671875 -33.578125 27.765625 -32.234375 C 29.867188 -30.898438 31.390625 -29.113281 32.328125 -26.875 L 28.953125 -24.4375 L 28.34375 -24.4375 C 27.425781 -26.289062 26.25 -27.644531 24.8125 -28.5 C 23.382812 -29.363281 21.539062 -29.796875 19.28125 -29.796875 C 17.21875 -29.796875 15.398438 -29.304688 13.828125 -28.328125 C 12.265625 -27.359375 11.050781 -25.898438 10.1875 -23.953125 C 9.320312 -22.003906 8.890625 -19.617188 8.890625 -16.796875 C 8.890625 -13.984375 9.328125 -11.609375 10.203125 -9.671875 C 11.078125 -7.734375 12.289062 -6.269531 13.84375 -5.28125 C 15.40625 -4.300781 17.21875 -3.8125 19.28125 -3.8125 C 21.625 -3.8125 23.5625 -4.335938 25.09375 -5.390625 C 26.625 -6.453125 27.828125 -8.117188 28.703125 -10.390625 L 29.34375 -10.390625 L 32.609375 -8.46875 C 31.734375 -5.644531 30.171875 -3.421875 27.921875 -1.796875 C 25.679688 -0.171875 22.800781 0.640625 19.28125 0.640625 Z M 19.28125 0.640625 " />
            </g>
        </g>
    </g>
    <g fill="#000000" fill-opacity="1">
        <g transform="translate(259.943712, 53.804915)">
            <g>
                <path
                    d="M 32.03125 -15.65625 L 8.921875 -15.65625 C 9.066406 -11.570312 10.046875 -8.578125 11.859375 -6.671875 C 13.679688 -4.765625 16.175781 -3.8125 19.34375 -3.8125 C 21.738281 -3.8125 23.664062 -4.238281 25.125 -5.09375 C 26.59375 -5.945312 27.742188 -7.285156 28.578125 -9.109375 L 29.21875 -9.109375 L 32.453125 -7.1875 C 31.472656 -4.75 29.910156 -2.832031 27.765625 -1.4375 C 25.628906 -0.0507812 22.820312 0.640625 19.34375 0.640625 C 16.09375 0.640625 13.300781 0 10.96875 -1.28125 C 8.632812 -2.5625 6.835938 -4.5 5.578125 -7.09375 C 4.316406 -9.695312 3.6875 -12.929688 3.6875 -16.796875 C 3.6875 -20.609375 4.347656 -23.820312 5.671875 -26.4375 C 7.003906 -29.0625 8.820312 -31.019531 11.125 -32.3125 C 13.4375 -33.601562 16.078125 -34.25 19.046875 -34.25 C 23.347656 -34.25 26.707031 -33.035156 29.125 -30.609375 C 31.539062 -28.179688 32.757812 -24.582031 32.78125 -19.8125 C 32.78125 -17.9375 32.742188 -16.675781 32.671875 -16.03125 Z M 27.875 -19.8125 C 27.800781 -23.382812 27.007812 -25.984375 25.5 -27.609375 C 24 -29.234375 21.847656 -30.046875 19.046875 -30.046875 C 16.097656 -30.046875 13.785156 -29.226562 12.109375 -27.59375 C 10.429688 -25.957031 9.410156 -23.363281 9.046875 -19.8125 Z M 27.875 -19.8125 " />
            </g>
        </g>
    </g>
    <g clip-path="url(#80067735f9)">
        <g clip-path="url(#14d7acfdd6)">
            <g clip-path="url(#21928353c4)">
                <path fill="#000000"
                    d="M 27.328125 3.089844 L 53.882812 12.757812 L 44.21875 39.3125 L 17.664062 29.644531 Z M 27.328125 3.089844 "
                    fill-opacity="1" fill-rule="nonzero" />
            </g>
        </g>
    </g>
    <g clip-path="url(#586961165a)">
        <g clip-path="url(#488dfabf95)">
            <path fill="#000000"
                d="M 24.851562 33.992188 L 35.917969 38.019531 L 35.113281 40.230469 L 24.046875 36.203125 Z M 24.851562 33.992188 "
                fill-opacity="1" fill-rule="nonzero" />
        </g>
    </g>
    <g clip-path="url(#ccd1d8fd03)">
        <g clip-path="url(#488ea4c667)">
            <path fill="#000000"
                d="M 24.617188 38.082031 L 33.46875 41.304688 L 32.933594 42.78125 L 24.078125 39.558594 Z M 24.617188 38.082031 "
                fill-opacity="1" fill-rule="nonzero" />
        </g>
    </g>
    <g clip-path="url(#2b606292ae)">
        <g clip-path="url(#599c0b9775)">
            <path fill="#000000"
                d="M 24.648438 41.4375 L 31.289062 43.851562 L 31.019531 44.589844 L 24.382812 42.175781 Z M 24.648438 41.4375 "
                fill-opacity="1" fill-rule="nonzero" />
        </g>
    </g>
    <g clip-path="url(#99900b7ac2)">
        <g clip-path="url(#4d25035e6b)">
            <g clip-path="url(#d50c94c2de)">
                <path fill="#000000"
                    d="M 50.914062 71.90625 L 24.359375 62.242188 L 34.027344 35.683594 L 60.582031 45.351562 Z M 50.914062 71.90625 "
                    fill-opacity="1" fill-rule="nonzero" />
            </g>
        </g>
    </g>
    <g clip-path="url(#07af71ddbe)">
        <g clip-path="url(#6db5df8fc7)">
            <path fill="#000000"
                d="M 53.390625 41.003906 L 42.324219 36.980469 L 43.132812 34.765625 L 54.195312 38.792969 Z M 53.390625 41.003906 "
                fill-opacity="1" fill-rule="nonzero" />
        </g>
    </g>
    <g clip-path="url(#ec7e146c06)">
        <g clip-path="url(#7197edc989)">
            <path fill="#000000"
                d="M 53.628906 36.914062 L 44.777344 33.691406 L 45.316406 32.214844 L 54.167969 35.4375 Z M 53.628906 36.914062 "
                fill-opacity="1" fill-rule="nonzero" />
        </g>
    </g>
    <g clip-path="url(#6b05fe3311)">
        <g clip-path="url(#0c9b431ac0)">
            <path fill="#000000"
                d="M 53.59375 33.554688 L 46.953125 31.140625 L 47.222656 30.402344 L 53.859375 32.820312 Z M 53.59375 33.554688 "
                fill-opacity="1" fill-rule="nonzero" />
        </g>
    </g>
</svg>