<svg width="1446" height="391" viewBox="0 0 1446 391" fill="none"
    xmlns="http://www.w3.org/2000/svg">
    <path
        d="M195.092 3.52853H195.099C300.898 3.52853 386.665 89.2955 386.665 195.095V195.102C386.665 300.901 300.898 386.668 195.099 386.668H195.092C89.2926 386.668 3.5256 300.901 3.5256 195.102V195.095C3.5256 89.2955 89.2926 3.52853 195.092 3.52853Z"
        fill="#111111" stroke="#111111" stroke-width="7.05706" />
    <path
        d="M195.099 0H195.092C87.3439 0 -0.00292969 87.3468 -0.00292969 195.095V195.102C-0.00292969 302.85 87.3439 390.196 195.092 390.196H195.099C302.847 390.196 390.193 302.85 390.193 195.102V195.095C390.193 87.3468 302.847 0 195.099 0Z"
        fill="url(#paint0_radial_1174_5483)" fill-opacity="0.7" />
    <path
        d="M195.092 3.57319H195.099C300.873 3.57319 386.62 89.3202 386.62 195.095V195.102C386.62 300.876 300.873 386.623 195.099 386.623H195.092C89.3173 386.623 3.57027 300.876 3.57027 195.102V195.095C3.57027 89.3202 89.3173 3.57319 195.092 3.57319Z"
        stroke="url(#paint1_linear_1174_5483)" stroke-width="7.14639" />
    <path fill-rule="evenodd" clip-rule="evenodd"
        d="M152.405 104.362H148.248L145.553 107.527L75.9681 189.259L71.001 195.094L75.9681 200.928L145.553 282.66L148.248 285.826H152.405H277.682H286.682V276.826V224.867H268.682V267.826H172.087L229.9 200.981L234.992 195.093L229.9 189.206L172.087 122.362H268.682V165.321H286.682V113.362V104.362H277.682H152.405ZM152.458 127.183L94.6409 195.094L152.458 263.005L211.194 195.094L152.458 127.183Z"
        fill="white" />
    <path
        d="M625.636 99.1822V78.0167H470.19V309.533H625.636V288.365H494.664V201.712H615.716V180.544H494.664V99.1822H625.636Z"
        fill="black" />
    <path
        d="M687.319 298.287C679.711 290.794 675.908 278.444 675.908 261.245V165.661H646.801V144.493H675.908V94.552H699.718V144.493H742.717V165.661H699.718V261.245C699.718 270.951 701.649 277.896 705.51 282.081C709.363 286.272 715.814 288.365 724.855 288.365H742.717V309.533H724.855C707.437 309.533 694.923 305.785 687.319 298.287Z"
        fill="black" />
    <path
        d="M777.11 78.0172H800.924V167.315C805.994 159.601 812.5 153.425 820.438 148.795C828.376 144.164 836.42 141.849 844.582 141.849H867.733C882.946 141.849 895.235 147.033 904.61 157.394C913.98 167.761 918.665 181.32 918.665 198.075V309.533H894.851V197.414C894.851 187.274 892.316 179.005 887.246 172.607C882.173 166.215 875.447 163.017 867.07 163.017H845.241C834.874 163.017 825.449 167.043 816.965 175.088C808.474 183.138 803.126 193.445 800.924 206.013V309.533H777.11V78.0172Z"
        fill="black" />
    <path
        d="M969.262 295.807C958.016 284.893 952.394 270.398 952.394 252.314V205.02C952.394 186.059 958.016 170.788 969.262 159.212C980.508 147.637 995.392 141.849 1013.91 141.849H1041.03C1058.67 141.849 1072.89 147.472 1083.7 158.716C1094.5 169.962 1099.9 184.845 1099.9 203.366V232.471H976.208V252.314C976.208 263.782 979.68 273.099 986.626 280.262C993.571 287.429 1002.67 291.012 1013.91 291.012H1039.05C1050.07 291.012 1059 287.983 1065.84 281.916C1072.67 275.854 1076.09 267.751 1076.09 257.608H1099.24C1099.24 273.927 1093.73 287.1 1082.71 297.129C1071.68 307.167 1057.13 312.179 1039.05 312.179H1013.91C995.392 312.179 980.508 306.721 969.262 295.807ZM1076.09 211.965V203.366C1076.09 191.243 1072.89 181.486 1066.5 174.095C1060.1 166.711 1051.62 163.016 1041.03 163.016H1013.91C1002.67 163.016 993.571 166.876 986.626 174.592C979.68 182.312 976.208 192.451 976.208 205.02V211.965H1076.09Z"
        fill="black" />
    <path
        d="M1133.64 144.494H1156.79V168.969C1161.86 161.031 1168.48 154.531 1176.63 149.455C1184.79 144.386 1192.95 141.849 1201.11 141.849H1223.6C1238.82 141.849 1251.1 147.032 1260.48 157.393C1269.85 167.76 1274.54 181.319 1274.54 198.074V309.533H1250.72V197.413C1250.72 187.274 1248.18 179.004 1243.11 172.606C1238.04 166.214 1231.32 163.016 1222.94 163.016H1201.77C1191.4 163.016 1181.98 167.099 1173.49 175.253C1165 183.413 1159.66 193.888 1157.45 206.674V309.533H1133.64V144.494Z"
        fill="black" />
    <path
        d="M1318.68 299.611C1309.09 291.234 1304.29 279.988 1304.29 265.876V255.291C1304.29 241.4 1309.26 230.27 1319.18 221.887C1329.1 213.511 1342.22 209.318 1358.54 209.318H1379.7C1386.98 209.318 1394.47 210.425 1402.2 212.626C1409.91 214.833 1416.53 217.81 1422.04 221.557V194.105C1422.04 184.845 1419.17 177.293 1413.44 171.449C1407.71 165.61 1400.1 162.685 1390.62 162.685H1364.16C1354.68 162.685 1347.07 164.892 1341.34 169.301C1335.6 173.713 1332.74 179.552 1332.74 186.829H1308.93C1308.93 173.381 1313.99 162.52 1324.14 154.25C1334.28 145.983 1347.62 141.849 1364.16 141.849H1390.62C1406.93 141.849 1420.1 146.644 1430.14 156.236C1440.17 165.828 1445.19 178.451 1445.19 194.105V309.533H1422.7V286.382C1417.62 294.318 1410.96 300.602 1402.69 305.234C1394.42 309.864 1385.87 312.179 1377.06 312.179H1357.21C1341.12 312.179 1328.27 307.993 1318.68 299.611ZM1377.72 291.342C1388.08 291.342 1397.34 288.148 1405.5 281.752C1413.66 275.358 1419.17 266.868 1422.04 256.284V244.047C1417.62 239.86 1411.51 236.497 1403.68 233.959C1395.86 231.428 1387.86 230.156 1379.7 230.156H1358.54C1349.49 230.156 1342.16 232.471 1336.54 237.102C1330.92 241.732 1328.11 247.798 1328.11 255.291V265.876C1328.11 273.596 1330.75 279.766 1336.05 284.396C1341.34 289.027 1348.39 291.342 1357.21 291.342L1377.72 291.342Z"
        fill="black" />
    <defs>
        <radialGradient id="paint0_radial_1174_5483" cx="0" cy="0" r="1"
            gradientUnits="userSpaceOnUse"
            gradientTransform="translate(195.514 56.9737) rotate(90) scale(411.352 289.55)">
            <stop offset="0.03125" stop-color="#3A3A3A" />
            <stop offset="1" stop-color="#1C1C1C" />
        </radialGradient>
        <linearGradient id="paint1_linear_1174_5483" x1="195.095" y1="-3.68113"
            x2="195.095" y2="393.878" gradientUnits="userSpaceOnUse">
            <stop stop-color="white" />
            <stop offset="1" stop-color="#111111" />
        </linearGradient>

    </defs>
</svg>