<svg width="391" height="391" viewBox="0 0 391 391" fill="none"
    xmlns="http://www.w3.org/2000/svg">
    <path
        d="M195.095 3.52853H195.102C300.901 3.52853 386.668 89.2955 386.668 195.095V195.102C386.668 300.901 300.901 386.668 195.102 386.668H195.095C89.2955 386.668 3.52853 300.901 3.52853 195.102V195.095C3.52853 89.2955 89.2955 3.52853 195.095 3.52853Z"
        fill="white" stroke="black" stroke-width="7.05706" />

    <path fill-rule="evenodd" clip-rule="evenodd"
        d="M163.798 34.5593C88.4902 49.065 31.6045 115.32 31.6045 194.862C31.6045 274.404 88.4902 340.66 163.798 355.165V339.865C96.8273 325.589 46.5972 266.092 46.5972 194.862C46.5972 123.633 96.8273 64.1357 163.798 49.8597V34.5593ZM226.199 49.9197V34.6135C301.368 49.2293 358.113 115.419 358.113 194.862C358.113 274.306 301.368 340.495 226.199 355.111V339.805C293.03 325.423 343.12 265.992 343.12 194.862C343.12 123.732 293.03 64.3017 226.199 49.9197Z"
        fill="black" />
    <path
        d="M218.119 189.407C230.575 191.781 240.237 196.359 247.104 203.142C253.971 209.755 257.404 218.233 257.404 228.577V244.856C257.404 257.234 252.933 267.239 243.99 274.869C235.047 282.33 223.309 286.061 208.777 286.061H203.746V312.005H186.499V286.061H181.229C171.648 286.061 163.184 283.941 155.838 279.702C148.492 275.293 142.743 269.189 138.591 261.388C134.598 253.419 132.602 244.262 132.602 233.918H149.849C149.849 244.432 152.724 252.995 158.473 259.608C164.381 266.052 172.127 269.273 181.708 269.273H208.298C217.72 269.273 225.305 267.069 231.054 262.66C236.803 258.082 239.678 252.147 239.678 244.856V228.577C239.678 222.812 237.522 217.894 233.21 213.825C229.058 209.755 223.309 207.127 215.963 205.94L172.845 198.309C160.708 196.105 151.286 191.526 144.579 184.574C137.872 177.622 134.518 168.889 134.518 158.376V144.641C134.518 132.262 138.83 122.428 147.454 115.136C156.237 107.675 167.815 103.945 182.187 103.945H186.499V78.0007H203.746V103.945H209.256C222.83 103.945 233.769 108.353 242.073 117.171C250.377 125.819 254.53 137.265 254.53 151.508H237.282C237.282 142.182 234.727 134.721 229.617 129.125C224.507 123.53 217.72 120.732 209.256 120.732H182.187C173.085 120.732 165.819 122.936 160.389 127.345C154.959 131.584 152.245 137.35 152.245 144.641V158.376C152.245 164.311 154.241 169.313 158.233 173.383C162.385 177.452 168.054 180.165 175.241 181.522L218.119 189.407Z"
        fill="black" />
</svg>